<mxfile host="app.diagrams.net" modified="2023-08-01T09:13:57.286Z" agent="Mozilla/5.0 (Windows NT 10.0; Win64; x64) AppleWebKit/537.36 (KHTML, like Gecko) Chrome/115.0.0.0 Safari/537.36 Edg/115.0.1901.188" etag="nceJdYTTgrTRqddfV3fC" version="21.6.6" type="github">
  <diagram name="第 1 页" id="tjpS_QEumj8VpmMpN6X5">
    <mxGraphModel dx="996" dy="581" grid="1" gridSize="10" guides="1" tooltips="1" connect="1" arrows="1" fold="1" page="1" pageScale="1" pageWidth="827" pageHeight="1169" math="0" shadow="0">
      <root>
        <mxCell id="0" />
        <mxCell id="1" parent="0" />
        <mxCell id="za2hmy28By-FEMoZsk_b-1" value="高级精神功能异常&lt;br&gt;&lt;font&gt;（14）&lt;/font&gt;" style="ellipse;whiteSpace=wrap;html=1;" vertex="1" parent="1">
          <mxGeometry x="260" y="90" width="120" height="80" as="geometry" />
        </mxCell>
        <mxCell id="za2hmy28By-FEMoZsk_b-2" value="&lt;font&gt;认知功能损害&lt;/font&gt;&lt;br&gt;&lt;font&gt;（350）&lt;/font&gt;" style="ellipse;whiteSpace=wrap;html=1;" vertex="1" parent="1">
          <mxGeometry x="150" y="210" width="120" height="80" as="geometry" />
        </mxCell>
        <mxCell id="za2hmy28By-FEMoZsk_b-3" value="&lt;font&gt;智力残疾&lt;/font&gt;&lt;br&gt;&lt;font&gt;（2367）&lt;/font&gt;" style="ellipse;whiteSpace=wrap;html=1;" vertex="1" parent="1">
          <mxGeometry x="380" y="210" width="120" height="80" as="geometry" />
        </mxCell>
      </root>
    </mxGraphModel>
  </diagram>
</mxfile>
